<svg width="286" height="66" viewBox="0 0 286 66" fill="none" xmlns="http://www.w3.org/2000/svg">
<path d="M176.425 28.1441C175.417 21.701 172.781 15.5496 168.791 10.1923L151.051 19.4357C151.277 20.7767 150.817 22.1932 149.67 23.2256C147.886 24.832 145.069 24.9415 143.142 23.5568L125.538 32.7286C123.512 33.7846 122.264 35.7327 122.264 37.8403V52.4252C124.974 52.4252 127.172 54.4026 127.172 56.8419C127.172 59.2817 124.974 61.2591 122.264 61.2591V61.9974C122.264 62.318 122.294 62.6328 122.349 62.9395H155.524C155.524 60.5002 157.721 58.5228 160.432 58.5228C163.142 58.5228 165.339 60.5002 165.339 62.9395H170.07C173.695 62.9395 176.633 60.2954 176.633 57.0332V29.885C176.633 29.6092 176.611 29.3342 176.569 29.0612L176.425 28.1441Z" fill="#FFC66C"/>
<path d="M154.302 30.0609C154.302 32.779 151.854 34.9828 148.834 34.9828C145.813 34.9828 143.365 32.779 143.365 30.0609C143.365 27.3428 145.813 25.139 148.834 25.139C151.854 25.139 154.302 27.3428 154.302 30.0609V30.0609Z" fill="#FF6E37"/>
<path d="M143 51.8781C143 54.3174 140.803 56.2953 138.093 56.2953C135.382 56.2953 133.185 54.3174 133.185 51.8781C133.185 49.4388 135.382 47.4614 138.093 47.4614C140.803 47.4614 143 49.4388 143 51.8781Z" fill="#FF6E37"/>
<path d="M166.25 46.2574C166.25 47.9493 164.726 49.3211 162.846 49.3211C160.966 49.3211 159.442 47.9493 159.442 46.2574C159.442 44.5655 160.966 43.1942 162.846 43.1942C164.726 43.1942 166.25 44.5655 166.25 46.2574Z" fill="#FF6E37"/>
<path d="M126.083 39.6129C126.083 41.1592 124.69 42.4127 122.972 42.4127C121.254 42.4127 119.861 41.1592 119.861 39.6129C119.861 38.0667 121.254 36.8131 122.972 36.8131C124.69 36.8131 126.083 38.0667 126.083 39.6129V39.6129Z" fill="#FF6E37"/>
<path d="M163.599 14.0696C163.599 15.6442 162.181 16.9204 160.432 16.9204C158.683 16.9204 157.264 15.6442 157.264 14.0696C157.264 12.4955 158.683 11.2189 160.432 11.2189C162.181 11.2189 163.599 12.4955 163.599 14.0696V14.0696Z" fill="#FF6E37"/>
<path d="M138.093 46.231C134.632 46.231 131.817 48.7645 131.817 51.8782C131.817 54.9923 134.632 57.5259 138.093 57.5259C141.552 57.5259 144.367 54.9923 144.367 51.8782C144.367 48.7645 141.552 46.231 138.093 46.231V46.231ZM138.093 55.0649C136.14 55.0649 134.552 53.6355 134.552 51.8782C134.552 50.1214 136.14 48.692 138.093 48.692C140.045 48.692 141.633 50.1214 141.633 51.8782C141.633 53.6355 140.045 55.0649 138.093 55.0649V55.0649Z" fill="black"/>
<path d="M162.846 41.9638C160.215 41.9638 158.075 43.8898 158.075 46.2575C158.075 48.6252 160.215 50.5511 162.846 50.5511C165.477 50.5511 167.617 48.6252 167.617 46.2575C167.617 43.8898 165.477 41.9638 162.846 41.9638V41.9638ZM162.846 48.0907C161.723 48.0907 160.809 47.2683 160.809 46.2575C160.809 45.2467 161.723 44.4247 162.846 44.4247C163.969 44.4247 164.882 45.2471 164.882 46.2575C164.882 47.2683 163.969 48.0907 162.846 48.0907Z" fill="black"/>
<path d="M122.972 35.5822C120.503 35.5822 118.494 37.3904 118.494 39.6129C118.494 41.835 120.503 43.6432 122.972 43.6432C125.441 43.6432 127.45 41.835 127.45 39.6129C127.45 37.3904 125.441 35.5822 122.972 35.5822V35.5822ZM122.972 41.1822C122.01 41.1822 121.229 40.4781 121.229 39.6129C121.229 38.7477 122.01 38.0436 122.972 38.0436C123.934 38.0436 124.716 38.7477 124.716 39.6129C124.716 40.4781 123.934 41.1822 122.972 41.1822Z" fill="black"/>
<path d="M160.432 18.1509C162.932 18.1509 164.966 16.3201 164.966 14.0697C164.966 11.8193 162.932 9.98846 160.432 9.98846C157.931 9.98846 155.897 11.8193 155.897 14.0697C155.897 16.3201 157.931 18.1509 160.432 18.1509ZM160.432 12.4494C161.424 12.4494 162.232 13.1761 162.232 14.0697C162.232 14.9632 161.424 15.69 160.432 15.69C159.439 15.69 158.631 14.9632 158.631 14.0697C158.631 13.1761 159.439 12.4494 160.432 12.4494Z" fill="black"/>
<path d="M177.923 28.8896L177.779 27.973C176.463 19.5645 172.521 11.7279 166.377 5.30931C163.799 2.6167 159.453 1.95196 156.042 3.72941L137.469 13.4069C136.982 13.6606 136.717 14.1562 136.802 14.6565C136.973 15.6712 136.611 16.6681 135.806 17.3919C134.53 18.5402 132.506 18.6431 131.098 17.6313C130.658 17.315 130.047 17.2737 129.56 17.528L111.957 26.7002C110.794 27.3059 109.841 28.1609 109.162 29.1641C108.948 29.3443 108.8 29.5851 108.75 29.8567C108.265 30.7887 108 31.8177 108 32.8761V47.4615C108 48.1412 108.612 48.692 109.367 48.692C111.319 48.692 112.907 50.1214 112.907 51.8782C112.907 53.6355 111.319 55.0649 109.367 55.0649C108.612 55.0649 108 55.6158 108 56.2954V57.0337C108 60.9688 111.557 64.1704 115.93 64.1704H155.524C156.279 64.1704 156.891 63.6196 156.891 62.9399C156.891 61.1827 158.48 59.7532 160.432 59.7532C162.384 59.7532 163.972 61.1827 163.972 62.9399C163.972 63.6196 164.584 64.1704 165.339 64.1704H170.07C174.443 64.1704 178 60.9688 178 57.0337V29.885C178 29.5529 177.974 29.2184 177.923 28.8896ZM170.07 61.7095H166.557C165.931 59.1851 163.422 57.2923 160.432 57.2923C157.441 57.2923 154.932 59.1851 154.307 61.7095H115.93C113.197 61.7095 110.951 59.8013 110.749 57.3875C113.546 56.8193 115.642 54.5651 115.642 51.8782C115.642 49.1871 113.539 46.929 110.734 46.3661V32.8761C110.734 32.3282 110.844 31.7932 111.046 31.2914H120.351C121.105 31.2914 121.718 30.7406 121.718 30.061C121.718 29.3813 121.105 28.8305 120.351 28.8305H113.326C113.326 28.83 113.326 28.83 113.327 28.83L130.19 20.0432C132.609 21.2929 135.709 20.9593 137.74 19.1319C138.915 18.074 139.569 16.6325 139.576 15.1526L157.412 5.85917C159.686 4.67437 162.585 5.11849 164.305 6.91565C170.106 12.9757 173.829 20.3758 175.071 28.3157L175.152 28.8305H144.967C145.531 27.3981 147.051 26.3695 148.834 26.3695C149.589 26.3695 150.201 25.8187 150.201 25.1391C150.201 24.4594 149.589 23.9086 148.834 23.9086C145.532 23.9086 142.77 26.0254 142.135 28.8305H132.199C131.444 28.8305 130.832 29.3813 130.832 30.061C130.832 30.7406 131.444 31.2914 132.199 31.2914H142.135C142.77 34.096 145.532 36.2133 148.834 36.2133C152.135 36.2133 154.897 34.096 155.532 31.2914H175.266V57.0337C175.266 59.6119 172.935 61.7095 170.07 61.7095V61.7095ZM152.7 31.2914C152.135 32.7238 150.616 33.7524 148.833 33.7524C147.051 33.7524 145.531 32.7238 144.967 31.2914H152.7Z" fill="black"/>
<path d="M126.457 28.8304C126.098 28.8304 125.745 28.9621 125.49 29.1909C125.236 29.4197 125.09 29.7374 125.09 30.0609C125.09 30.3844 125.236 30.7021 125.49 30.9309C125.745 31.1597 126.098 31.2914 126.457 31.2914C126.816 31.2914 127.169 31.1597 127.424 30.9309C127.678 30.7021 127.824 30.3844 127.824 30.0609C127.824 29.7374 127.678 29.4197 127.424 29.1909C127.169 28.9621 126.816 28.8304 126.457 28.8304Z" fill="black"/>
<path d="M284.425 26.1441C283.417 19.701 280.781 13.5496 276.791 8.19226L259.051 17.4357C259.277 18.7767 258.817 20.1932 257.67 21.2256C255.886 22.832 253.069 22.9415 251.142 21.5568L233.538 30.7286C231.512 31.7846 230.264 33.7327 230.264 35.8403V50.4252C232.974 50.4252 235.172 52.4026 235.172 54.8419C235.172 57.2817 232.974 59.2591 230.264 59.2591V59.9974C230.264 60.318 230.294 60.6328 230.349 60.9395H263.524C263.524 58.5002 265.721 56.5228 268.432 56.5228C271.142 56.5228 273.339 58.5002 273.339 60.9395H278.07C281.695 60.9395 284.633 58.2954 284.633 55.0332V27.885C284.633 27.6092 284.611 27.3342 284.569 27.0612L284.425 26.1441Z" fill="#FFC66C"/>
<path d="M262.302 28.0609C262.302 30.779 259.854 32.9828 256.834 32.9828C253.813 32.9828 251.365 30.779 251.365 28.0609C251.365 25.3428 253.813 23.139 256.834 23.139C259.854 23.139 262.302 25.3428 262.302 28.0609V28.0609Z" fill="#FF6E37"/>
<path d="M251 49.8781C251 52.3174 248.803 54.2953 246.093 54.2953C243.382 54.2953 241.185 52.3174 241.185 49.8781C241.185 47.4388 243.382 45.4614 246.093 45.4614C248.803 45.4614 251 47.4388 251 49.8781Z" fill="#FF6E37"/>
<path d="M274.25 44.2574C274.25 45.9493 272.726 47.3211 270.846 47.3211C268.966 47.3211 267.442 45.9493 267.442 44.2574C267.442 42.5655 268.966 41.1942 270.846 41.1942C272.726 41.1942 274.25 42.5655 274.25 44.2574Z" fill="#FF6E37"/>
<path d="M234.083 37.6129C234.083 39.1592 232.69 40.4127 230.972 40.4127C229.254 40.4127 227.861 39.1592 227.861 37.6129C227.861 36.0667 229.254 34.8131 230.972 34.8131C232.69 34.8131 234.083 36.0667 234.083 37.6129V37.6129Z" fill="#FF6E37"/>
<path d="M271.599 12.0696C271.599 13.6442 270.181 14.9204 268.432 14.9204C266.683 14.9204 265.264 13.6442 265.264 12.0696C265.264 10.4955 266.683 9.21887 268.432 9.21887C270.181 9.21887 271.599 10.4955 271.599 12.0696V12.0696Z" fill="#FF6E37"/>
<path d="M246.093 44.231C242.632 44.231 239.817 46.7645 239.817 49.8782C239.817 52.9923 242.632 55.5259 246.093 55.5259C249.552 55.5259 252.367 52.9923 252.367 49.8782C252.367 46.7645 249.552 44.231 246.093 44.231V44.231ZM246.093 53.0649C244.14 53.0649 242.552 51.6355 242.552 49.8782C242.552 48.1214 244.14 46.692 246.093 46.692C248.045 46.692 249.633 48.1214 249.633 49.8782C249.633 51.6355 248.045 53.0649 246.093 53.0649V53.0649Z" fill="black"/>
<path d="M270.846 39.9638C268.215 39.9638 266.075 41.8898 266.075 44.2575C266.075 46.6252 268.215 48.5511 270.846 48.5511C273.477 48.5511 275.617 46.6252 275.617 44.2575C275.617 41.8898 273.477 39.9638 270.846 39.9638V39.9638ZM270.846 46.0907C269.723 46.0907 268.809 45.2683 268.809 44.2575C268.809 43.2467 269.723 42.4247 270.846 42.4247C271.969 42.4247 272.882 43.2471 272.882 44.2575C272.882 45.2683 271.969 46.0907 270.846 46.0907Z" fill="black"/>
<path d="M230.972 33.5822C228.503 33.5822 226.494 35.3904 226.494 37.6129C226.494 39.835 228.503 41.6432 230.972 41.6432C233.441 41.6432 235.45 39.835 235.45 37.6129C235.45 35.3904 233.441 33.5822 230.972 33.5822V33.5822ZM230.972 39.1822C230.01 39.1822 229.229 38.4781 229.229 37.6129C229.229 36.7477 230.01 36.0436 230.972 36.0436C231.934 36.0436 232.716 36.7477 232.716 37.6129C232.716 38.4781 231.934 39.1822 230.972 39.1822Z" fill="black"/>
<path d="M268.432 16.1509C270.932 16.1509 272.966 14.3201 272.966 12.0697C272.966 9.81927 270.932 7.98846 268.432 7.98846C265.931 7.98846 263.897 9.81927 263.897 12.0697C263.897 14.3201 265.931 16.1509 268.432 16.1509ZM268.432 10.4494C269.424 10.4494 270.232 11.1761 270.232 12.0697C270.232 12.9632 269.424 13.69 268.432 13.69C267.439 13.69 266.631 12.9632 266.631 12.0697C266.631 11.1761 267.439 10.4494 268.432 10.4494Z" fill="black"/>
<path d="M285.923 26.8896L285.779 25.973C284.463 17.5645 280.521 9.72793 274.377 3.30931C271.799 0.616698 267.453 -0.0480438 264.042 1.72941L245.469 11.4069C244.982 11.6606 244.717 12.1562 244.802 12.6565C244.973 13.6712 244.611 14.6681 243.806 15.3919C242.53 16.5402 240.506 16.6431 239.098 15.6313C238.658 15.315 238.047 15.2737 237.56 15.528L219.957 24.7002C218.794 25.3059 217.841 26.1609 217.162 27.1641C216.948 27.3443 216.8 27.5851 216.75 27.8567C216.265 28.7887 216 29.8177 216 30.8761V45.4615C216 46.1412 216.612 46.692 217.367 46.692C219.319 46.692 220.907 48.1214 220.907 49.8782C220.907 51.6355 219.319 53.0649 217.367 53.0649C216.612 53.0649 216 53.6158 216 54.2954V55.0337C216 58.9688 219.557 62.1704 223.93 62.1704H263.524C264.279 62.1704 264.891 61.6196 264.891 60.9399C264.891 59.1827 266.48 57.7532 268.432 57.7532C270.384 57.7532 271.972 59.1827 271.972 60.9399C271.972 61.6196 272.584 62.1704 273.339 62.1704H278.07C282.443 62.1704 286 58.9688 286 55.0337V27.885C286 27.5529 285.974 27.2184 285.923 26.8896ZM278.07 59.7095H274.557C273.931 57.1851 271.422 55.2923 268.432 55.2923C265.441 55.2923 262.932 57.1851 262.307 59.7095H223.93C221.197 59.7095 218.951 57.8013 218.749 55.3875C221.546 54.8193 223.642 52.5651 223.642 49.8782C223.642 47.1871 221.539 44.929 218.734 44.3661V30.8761C218.734 30.3282 218.844 29.7932 219.046 29.2914H228.351C229.105 29.2914 229.718 28.7406 229.718 28.061C229.718 27.3813 229.105 26.8305 228.351 26.8305H221.326C221.326 26.83 221.326 26.83 221.327 26.83L238.19 18.0432C240.609 19.2929 243.709 18.9593 245.74 17.1319C246.915 16.074 247.569 14.6325 247.576 13.1526L265.412 3.85917C267.686 2.67437 270.585 3.11849 272.305 4.91565C278.106 10.9757 281.829 18.3758 283.071 26.3157L283.152 26.8305H252.967C253.531 25.3981 255.051 24.3695 256.834 24.3695C257.589 24.3695 258.201 23.8187 258.201 23.1391C258.201 22.4594 257.589 21.9086 256.834 21.9086C253.532 21.9086 250.77 24.0254 250.135 26.8305H240.199C239.444 26.8305 238.832 27.3813 238.832 28.061C238.832 28.7406 239.444 29.2914 240.199 29.2914H250.135C250.77 32.096 253.532 34.2133 256.834 34.2133C260.135 34.2133 262.897 32.096 263.532 29.2914H283.266V55.0337C283.266 57.6119 280.935 59.7095 278.07 59.7095V59.7095ZM260.7 29.2914C260.135 30.7238 258.616 31.7524 256.833 31.7524C255.051 31.7524 253.531 30.7238 252.967 29.2914H260.7Z" fill="black"/>
<path d="M234.457 26.8304C234.098 26.8304 233.745 26.9621 233.49 27.1909C233.236 27.4197 233.09 27.7374 233.09 28.0609C233.09 28.3844 233.236 28.7021 233.49 28.9309C233.745 29.1597 234.098 29.2914 234.457 29.2914C234.816 29.2914 235.169 29.1597 235.424 28.9309C235.678 28.7021 235.824 28.3844 235.824 28.0609C235.824 27.7374 235.678 27.4197 235.424 27.1909C235.169 26.9621 234.816 26.8304 234.457 26.8304Z" fill="black"/>
<path d="M68.4251 29.1441C67.4168 22.701 64.7812 16.5496 60.7907 11.1923L43.0509 20.4357C43.2768 21.7767 42.817 23.1932 41.6698 24.2256C39.8856 25.832 37.0689 25.9415 35.1421 24.5568L17.5385 33.7286C15.5122 34.7846 14.2641 36.7327 14.2641 38.8403V53.4252C16.9745 53.4252 19.1721 55.4026 19.1721 57.8419C19.1721 60.2817 16.9745 62.2591 14.2641 62.2591V62.9974C14.2641 63.318 14.2935 63.6328 14.3485 63.9395H47.5237C47.5237 61.5002 49.7213 59.5228 52.4316 59.5228C55.142 59.5228 57.3391 61.5002 57.3391 63.9395H62.0703C65.695 63.9395 68.6328 61.2954 68.6328 58.0332V30.885C68.6328 30.6092 68.6115 30.3342 68.5687 30.0612L68.4251 29.1441Z" fill="#FFC66C"/>
<path d="M46.3023 31.0609C46.3023 33.779 43.8536 35.9828 40.8335 35.9828C37.8129 35.9828 35.3648 33.779 35.3648 31.0609C35.3648 28.3428 37.8129 26.139 40.8335 26.139C43.8536 26.139 46.3023 28.3428 46.3023 31.0609V31.0609Z" fill="#FF6E37"/>
<path d="M35 52.8781C35 55.3174 32.8029 57.2953 30.0925 57.2953C27.3817 57.2953 25.1846 55.3174 25.1846 52.8781C25.1846 50.4388 27.3817 48.4614 30.0925 48.4614C32.8029 48.4614 35 50.4388 35 52.8781Z" fill="#FF6E37"/>
<path d="M58.2497 47.2574C58.2497 48.9493 56.726 50.3211 54.8461 50.3211C52.9662 50.3211 51.442 48.9493 51.442 47.2574C51.442 45.5655 52.9662 44.1942 54.8461 44.1942C56.726 44.1942 58.2497 45.5655 58.2497 47.2574Z" fill="#FF6E37"/>
<path d="M18.0832 40.6129C18.0832 42.1592 16.6904 43.4127 14.9723 43.4127C13.2542 43.4127 11.8614 42.1592 11.8614 40.6129C11.8614 39.0667 13.2542 37.8131 14.9723 37.8131C16.6904 37.8131 18.0832 39.0667 18.0832 40.6129V40.6129Z" fill="#FF6E37"/>
<path d="M55.5991 15.0696C55.5991 16.6442 54.1807 17.9204 52.4316 17.9204C50.6826 17.9204 49.2641 16.6442 49.2641 15.0696C49.2641 13.4955 50.6826 12.2189 52.4316 12.2189C54.1807 12.2189 55.5991 13.4955 55.5991 15.0696V15.0696Z" fill="#FF6E37"/>
<path d="M30.0925 47.231C26.6324 47.231 23.8174 49.7645 23.8174 52.8782C23.8174 55.9923 26.6324 58.5259 30.0925 58.5259C33.5522 58.5259 36.3672 55.9923 36.3672 52.8782C36.3672 49.7645 33.5522 47.231 30.0925 47.231V47.231ZM30.0925 56.0649C28.14 56.0649 26.5517 54.6355 26.5517 52.8782C26.5517 51.1214 28.14 49.692 30.0925 49.692C32.0445 49.692 33.6328 51.1214 33.6328 52.8782C33.6328 54.6355 32.0445 56.0649 30.0925 56.0649V56.0649Z" fill="black"/>
<path d="M54.8461 42.9638C52.2153 42.9638 50.0748 44.8898 50.0748 47.2575C50.0748 49.6252 52.2153 51.5511 54.8461 51.5511C57.4769 51.5511 59.6169 49.6252 59.6169 47.2575C59.6169 44.8898 57.4769 42.9638 54.8461 42.9638V42.9638ZM54.8461 49.0907C53.723 49.0907 52.8092 48.2683 52.8092 47.2575C52.8092 46.2467 53.723 45.4247 54.8461 45.4247C55.9687 45.4247 56.8825 46.2471 56.8825 47.2575C56.8825 48.2683 55.9687 49.0907 54.8461 49.0907Z" fill="black"/>
<path d="M14.9723 36.5822C12.5028 36.5822 10.4942 38.3904 10.4942 40.6129C10.4942 42.835 12.5028 44.6432 14.9723 44.6432C17.4413 44.6432 19.4504 42.835 19.4504 40.6129C19.4504 38.3904 17.4413 36.5822 14.9723 36.5822V36.5822ZM14.9723 42.1822C14.0105 42.1822 13.2286 41.4781 13.2286 40.6129C13.2286 39.7477 14.0105 39.0436 14.9723 39.0436C15.9341 39.0436 16.716 39.7477 16.716 40.6129C16.716 41.4781 15.9336 42.1822 14.9723 42.1822Z" fill="black"/>
<path d="M52.4316 19.1509C54.9321 19.1509 56.9663 17.3201 56.9663 15.0697C56.9663 12.8193 54.9321 10.9885 52.4316 10.9885C49.9312 10.9885 47.897 12.8193 47.897 15.0697C47.897 17.3201 49.9312 19.1509 52.4316 19.1509ZM52.4316 13.4494C53.4245 13.4494 54.2319 14.1761 54.2319 15.0697C54.2319 15.9632 53.4245 16.69 52.4316 16.69C51.4388 16.69 50.6313 15.9632 50.6313 15.0697C50.6313 14.1761 51.4388 13.4494 52.4316 13.4494Z" fill="black"/>
<path d="M69.9226 29.8896L69.7789 28.973C68.463 20.5645 64.5206 12.7279 58.3768 6.30931C55.7994 3.6167 51.4527 2.95196 48.0417 4.72941L29.4688 14.4069C28.9822 14.6606 28.7173 15.1562 28.8017 15.6565C28.9732 16.6712 28.6105 17.6681 27.8062 18.3919C26.5304 19.5402 24.5058 19.6431 23.098 18.6313C22.6579 18.315 22.047 18.2737 21.5599 18.528L3.95683 27.7002C2.79366 28.3059 1.84143 29.1609 1.16211 30.1641C0.948486 30.3443 0.800018 30.5851 0.749817 30.8567C0.264893 31.7887 0 32.8177 0 33.8761V48.4615C0 49.1412 0.61203 49.692 1.36719 49.692C3.31917 49.692 4.90746 51.1214 4.90746 52.8782C4.90746 54.6355 3.31917 56.0649 1.36719 56.0649C0.61203 56.0649 0 56.6158 0 57.2954V58.0337C0 61.9688 3.55736 65.1704 7.92969 65.1704H47.5242C48.2793 65.1704 48.8914 64.6196 48.8914 63.9399C48.8914 62.1827 50.4797 60.7532 52.4316 60.7532C54.3836 60.7532 55.9719 62.1827 55.9719 63.9399C55.9719 64.6196 56.5839 65.1704 57.3391 65.1704H62.0703C66.4426 65.1704 70 61.9688 70 58.0337V30.885C70 30.5529 69.9738 30.2184 69.9226 29.8896ZM62.0703 62.7095H58.5567C57.9308 60.1851 55.4218 58.2923 52.4316 58.2923C49.4415 58.2923 46.9324 60.1851 46.3065 62.7095H7.92969C5.19745 62.7095 2.95067 60.8013 2.74933 58.3875C5.54619 57.8193 7.64236 55.5651 7.64236 52.8782C7.64236 50.1871 5.53925 47.929 2.73438 47.3661V33.8761C2.73438 33.3282 2.84439 32.7932 3.04626 32.2914H12.3506C13.1052 32.2914 13.7178 31.7406 13.7178 31.061C13.7178 30.3813 13.1052 29.8305 12.3506 29.8305H5.32562C5.32562 29.83 5.32616 29.83 5.32669 29.83L22.1901 21.0432C24.6094 22.2929 27.709 21.9593 29.7395 20.1319C30.915 19.074 31.5692 17.6325 31.5762 16.1526L49.4115 6.85917C51.6856 5.67437 54.585 6.11849 56.3052 7.91565C62.1061 13.9757 65.829 21.3758 67.0712 29.3157L67.1519 29.8305H36.9669C37.5314 28.3981 39.0508 27.3695 40.8335 27.3695C41.5887 27.3695 42.2007 26.8187 42.2007 26.1391C42.2007 25.4594 41.5887 24.9086 40.8335 24.9086C37.532 24.9086 34.7704 27.0254 34.1348 29.8305H24.1992C23.4441 29.8305 22.832 30.3813 22.832 31.061C22.832 31.7406 23.4441 32.2914 24.1992 32.2914H34.1348C34.7704 35.096 37.532 37.2133 40.8335 37.2133C44.1345 37.2133 46.8967 35.096 47.5317 32.2914H67.2656V58.0337C67.2656 60.6119 64.935 62.7095 62.0703 62.7095V62.7095ZM44.6996 32.2914C44.1351 33.7238 42.6157 34.7524 40.833 34.7524C39.0508 34.7524 37.5314 33.7238 36.9669 32.2914H44.6996Z" fill="black"/>
<path d="M18.457 29.8304C18.0976 29.8304 17.7446 29.9621 17.4904 30.1909C17.2362 30.4197 17.0898 30.7374 17.0898 31.0609C17.0898 31.3844 17.2362 31.7021 17.4904 31.9309C17.7446 32.1597 18.0976 32.2914 18.457 32.2914C18.8165 32.2914 19.1695 32.1597 19.4237 31.9309C19.6779 31.7021 19.8242 31.3844 19.8242 31.0609C19.8242 30.7374 19.6779 30.4197 19.4237 30.1909C19.1695 29.9621 18.8165 29.8304 18.457 29.8304Z" fill="black"/>
</svg>
